<svg width="368" height="285" viewBox="0 0 368 285" fill="none" xmlns="http://www.w3.org/2000/svg">
<rect width="368" height="285" rx="30" fill="white"/>
<path d="M69.4229 62.0938V75.3965C69.4229 77.5111 68.7438 79.1882 67.3857 80.4277C66.0368 81.6582 64.2367 82.2734 61.9854 82.2734C59.7067 82.2734 57.8975 81.6673 56.5576 80.4551C55.2178 79.2337 54.5479 77.543 54.5479 75.3828V62.0938H57.9932V75.4102C57.9932 76.7409 58.3304 77.7572 59.0049 78.459C59.6794 79.1608 60.6729 79.5117 61.9854 79.5117C64.6468 79.5117 65.9775 78.1081 65.9775 75.3008V62.0938H69.4229ZM74.5736 67.207L74.6693 68.916C75.7631 67.5944 77.1986 66.9336 78.976 66.9336C82.0567 66.9336 83.6244 68.6973 83.6791 72.2246V82H80.3568V72.416C80.3568 71.4772 80.1518 70.7845 79.7416 70.3379C79.3406 69.8822 78.6798 69.6543 77.7592 69.6543C76.4193 69.6543 75.4213 70.2604 74.7651 71.4727V82H71.4428V67.207H74.5736ZM86.9295 82V69.668H84.6737V67.207H86.9295V65.8535C86.9295 64.2129 87.3853 62.946 88.2967 62.0527C89.2082 61.1595 90.4842 60.7129 92.1248 60.7129C92.7082 60.7129 93.328 60.7949 93.9842 60.959L93.9022 63.5566C93.5376 63.4837 93.1138 63.4473 92.6307 63.4473C91.0448 63.4473 90.2518 64.263 90.2518 65.8945V67.207H93.2596V69.668H90.2518V82H86.9295ZM93.7483 74.4668C93.7483 73.0176 94.0354 71.7142 94.6096 70.5566C95.1838 69.39 95.9905 68.4967 97.0295 67.877C98.0686 67.248 99.2626 66.9336 100.612 66.9336C102.608 66.9336 104.226 67.5762 105.465 68.8613C106.714 70.1465 107.388 71.8509 107.489 73.9746L107.502 74.7539C107.502 76.2122 107.22 77.5156 106.655 78.6641C106.099 79.8125 105.296 80.7012 104.248 81.3301C103.209 81.959 102.006 82.2734 100.639 82.2734C98.5517 82.2734 96.8792 81.5807 95.6213 80.1953C94.3726 78.8008 93.7483 76.946 93.7483 74.6309V74.4668ZM97.0706 74.7539C97.0706 76.276 97.385 77.4701 98.0139 78.3359C98.6428 79.1927 99.5178 79.6211 100.639 79.6211C101.76 79.6211 102.63 79.1836 103.25 78.3086C103.879 77.4336 104.194 76.153 104.194 74.4668C104.194 72.972 103.87 71.7871 103.223 70.9121C102.585 70.0371 101.714 69.5996 100.612 69.5996C99.5269 69.5996 98.6656 70.0326 98.0276 70.8984C97.3896 71.7552 97.0706 73.0404 97.0706 74.7539ZM116.741 70.2422C116.303 70.1693 115.852 70.1328 115.387 70.1328C113.865 70.1328 112.84 70.7161 112.311 71.8828V82H108.989V67.207H112.161L112.243 68.8613C113.045 67.5762 114.157 66.9336 115.579 66.9336C116.053 66.9336 116.445 66.9974 116.755 67.125L116.741 70.2422ZM122.37 63.6113V67.207H124.982V69.668H122.37V77.9258C122.37 78.4909 122.48 78.901 122.698 79.1562C122.926 79.4023 123.327 79.5254 123.901 79.5254C124.284 79.5254 124.672 79.4798 125.064 79.3887V81.959C124.307 82.1686 123.578 82.2734 122.876 82.2734C120.324 82.2734 119.048 80.8652 119.048 78.0488V69.668H116.614V67.207H119.048V63.6113H122.37ZM135.177 80.5508C134.202 81.6992 132.817 82.2734 131.021 82.2734C129.417 82.2734 128.2 81.804 127.371 80.8652C126.55 79.9264 126.14 78.5684 126.14 76.791V67.207H129.462V76.75C129.462 78.6276 130.242 79.5664 131.8 79.5664C133.414 79.5664 134.503 78.9876 135.068 77.8301V67.207H138.39V82H135.259L135.177 80.5508ZM143.541 67.207L143.637 68.916C144.73 67.5944 146.166 66.9336 147.943 66.9336C151.024 66.9336 152.592 68.6973 152.646 72.2246V82H149.324V72.416C149.324 71.4772 149.119 70.7845 148.709 70.3379C148.308 69.8822 147.647 69.6543 146.726 69.6543C145.387 69.6543 144.389 70.2604 143.732 71.4727V82H140.41V67.207H143.541ZM163.567 82C163.421 81.7174 163.293 81.2572 163.184 80.6191C162.127 81.722 160.832 82.2734 159.301 82.2734C157.815 82.2734 156.603 81.8496 155.664 81.002C154.726 80.1543 154.256 79.1061 154.256 77.8574C154.256 76.2806 154.84 75.0729 156.006 74.2344C157.182 73.3867 158.859 72.9629 161.037 72.9629H163.075V71.9922C163.075 71.2266 162.86 70.6159 162.432 70.1602C162.004 69.6953 161.352 69.4629 160.477 69.4629C159.72 69.4629 159.101 69.6543 158.618 70.0371C158.134 70.4108 157.893 70.8893 157.893 71.4727H154.571C154.571 70.6615 154.84 69.9049 155.377 69.2031C155.915 68.4922 156.644 67.9362 157.565 67.5352C158.494 67.1341 159.529 66.9336 160.668 66.9336C162.4 66.9336 163.781 67.3711 164.811 68.2461C165.841 69.112 166.369 70.3333 166.397 71.9102V78.582C166.397 79.9128 166.584 80.9746 166.957 81.7676V82H163.567ZM159.916 79.6074C160.573 79.6074 161.188 79.4479 161.762 79.1289C162.345 78.8099 162.783 78.3815 163.075 77.8438V75.0547H161.284C160.053 75.0547 159.128 75.2689 158.508 75.6973C157.888 76.1257 157.578 76.7318 157.578 77.5156C157.578 78.1536 157.788 78.6641 158.207 79.0469C158.636 79.4206 159.205 79.6074 159.916 79.6074ZM172.723 63.6113V67.207H175.335V69.668H172.723V77.9258C172.723 78.4909 172.833 78.901 173.052 79.1562C173.279 79.4023 173.68 79.5254 174.255 79.5254C174.637 79.5254 175.025 79.4798 175.417 79.3887V81.959C174.66 82.1686 173.931 82.2734 173.229 82.2734C170.677 82.2734 169.401 80.8652 169.401 78.0488V69.668H166.968V67.207H169.401V63.6113H172.723ZM183.083 82.2734C180.978 82.2734 179.269 81.6126 177.956 80.291C176.653 78.9603 176.001 77.1921 176.001 74.9863V74.5762C176.001 73.0996 176.284 71.7826 176.849 70.625C177.423 69.4583 178.225 68.5514 179.255 67.9043C180.285 67.2572 181.433 66.9336 182.7 66.9336C184.715 66.9336 186.269 67.5762 187.362 68.8613C188.465 70.1465 189.017 71.9648 189.017 74.3164V75.6562H179.351C179.451 76.8776 179.857 77.8438 180.568 78.5547C181.288 79.2656 182.19 79.6211 183.275 79.6211C184.797 79.6211 186.036 79.0059 186.993 77.7754L188.784 79.4844C188.192 80.3685 187.399 81.0566 186.405 81.5488C185.421 82.0319 184.314 82.2734 183.083 82.2734ZM182.687 69.5996C181.775 69.5996 181.037 69.9186 180.472 70.5566C179.916 71.1947 179.56 72.0833 179.405 73.2227H185.736V72.9766C185.663 71.8646 185.366 71.026 184.847 70.4609C184.327 69.8867 183.607 69.5996 182.687 69.5996ZM193.826 82H190.503V61H193.826V82ZM201.314 77.2422L204.322 67.207H207.863L201.984 84.2422C201.082 86.7305 199.551 87.9746 197.391 87.9746C196.908 87.9746 196.374 87.8926 195.791 87.7285V85.1582L196.42 85.1992C197.258 85.1992 197.887 85.0443 198.307 84.7344C198.735 84.4336 199.072 83.9232 199.318 83.2031L199.797 81.9316L194.602 67.207H198.184L201.314 77.2422ZM206.643 86.4844L204.852 85.418C205.381 84.5885 205.741 83.8639 205.932 83.2441C206.133 82.6335 206.237 82.0091 206.246 81.3711V78.7871H209.241L209.227 81.1797C209.218 82.1458 208.972 83.112 208.489 84.0781C208.015 85.0534 207.399 85.8555 206.643 86.4844ZM221.839 77.2422L224.847 67.207H228.388L222.509 84.2422C221.607 86.7305 220.075 87.9746 217.915 87.9746C217.432 87.9746 216.899 87.8926 216.316 87.7285V85.1582L216.945 85.1992C217.783 85.1992 218.412 85.0443 218.831 84.7344C219.26 84.4336 219.597 83.9232 219.843 83.2031L220.322 81.9316L215.126 67.207H218.708L221.839 77.2422ZM228.152 74.4668C228.152 73.0176 228.439 71.7142 229.013 70.5566C229.588 69.39 230.394 68.4967 231.433 67.877C232.472 67.248 233.666 66.9336 235.015 66.9336C237.011 66.9336 238.629 67.5762 239.869 68.8613C241.118 70.1465 241.792 71.8509 241.892 73.9746L241.906 74.7539C241.906 76.2122 241.623 77.5156 241.058 78.6641C240.502 79.8125 239.7 80.7012 238.652 81.3301C237.613 81.959 236.41 82.2734 235.043 82.2734C232.955 82.2734 231.283 81.5807 230.025 80.1953C228.776 78.8008 228.152 76.946 228.152 74.6309V74.4668ZM231.474 74.7539C231.474 76.276 231.789 77.4701 232.418 78.3359C233.047 79.1927 233.922 79.6211 235.043 79.6211C236.164 79.6211 237.034 79.1836 237.654 78.3086C238.283 77.4336 238.597 76.153 238.597 74.4668C238.597 72.972 238.274 71.7871 237.627 70.9121C236.989 70.0371 236.118 69.5996 235.015 69.5996C233.931 69.5996 233.069 70.0326 232.431 70.8984C231.793 71.7552 231.474 73.0404 231.474 74.7539ZM252.361 80.5508C251.386 81.6992 250.001 82.2734 248.205 82.2734C246.601 82.2734 245.384 81.804 244.555 80.8652C243.734 79.9264 243.324 78.5684 243.324 76.791V67.207H246.647V76.75C246.647 78.6276 247.426 79.5664 248.984 79.5664C250.598 79.5664 251.687 78.9876 252.252 77.8301V67.207H255.574V82H252.443L252.361 80.5508ZM269.376 79.6211C270.205 79.6211 270.893 79.3796 271.44 78.8965C271.987 78.4134 272.279 77.8164 272.315 77.1055H275.446C275.41 78.026 275.123 78.8874 274.585 79.6895C274.047 80.4824 273.318 81.1113 272.397 81.5762C271.477 82.041 270.483 82.2734 269.417 82.2734C267.348 82.2734 265.707 81.6035 264.495 80.2637C263.283 78.9238 262.677 77.0736 262.677 74.7129V74.3711C262.677 72.1198 263.278 70.3197 264.481 68.9707C265.684 67.6126 267.325 66.9336 269.403 66.9336C271.162 66.9336 272.593 67.4486 273.696 68.4785C274.808 69.4993 275.392 70.8438 275.446 72.5117H272.315C272.279 71.6641 271.987 70.9668 271.44 70.4199C270.903 69.873 270.214 69.5996 269.376 69.5996C268.3 69.5996 267.471 69.9915 266.888 70.7754C266.304 71.5501 266.008 72.7305 265.999 74.3164V74.8496C265.999 76.4538 266.286 77.6523 266.86 78.4453C267.444 79.2292 268.282 79.6211 269.376 79.6211ZM285.478 82C285.332 81.7174 285.204 81.2572 285.095 80.6191C284.038 81.722 282.743 82.2734 281.212 82.2734C279.727 82.2734 278.514 81.8496 277.576 81.002C276.637 80.1543 276.167 79.1061 276.167 77.8574C276.167 76.2806 276.751 75.0729 277.917 74.2344C279.093 73.3867 280.77 72.9629 282.949 72.9629H284.986V71.9922C284.986 71.2266 284.771 70.6159 284.343 70.1602C283.915 69.6953 283.263 69.4629 282.388 69.4629C281.631 69.4629 281.012 69.6543 280.529 70.0371C280.046 70.4108 279.804 70.8893 279.804 71.4727H276.482C276.482 70.6615 276.751 69.9049 277.288 69.2031C277.826 68.4922 278.555 67.9362 279.476 67.5352C280.406 67.1341 281.44 66.9336 282.579 66.9336C284.311 66.9336 285.692 67.3711 286.722 68.2461C287.752 69.112 288.281 70.3333 288.308 71.9102V78.582C288.308 79.9128 288.495 80.9746 288.868 81.7676V82H285.478ZM281.827 79.6074C282.484 79.6074 283.099 79.4479 283.673 79.1289C284.256 78.8099 284.694 78.3815 284.986 77.8438V75.0547H283.195C281.964 75.0547 281.039 75.2689 280.419 75.6973C279.799 76.1257 279.49 76.7318 279.49 77.5156C279.49 78.1536 279.699 78.6641 280.118 79.0469C280.547 79.4206 281.117 79.6074 281.827 79.6074ZM293.554 67.207L293.65 68.916C294.744 67.5944 296.179 66.9336 297.957 66.9336C301.038 66.9336 302.605 68.6973 302.66 72.2246V82H299.338V72.416C299.338 71.4772 299.133 70.7845 298.722 70.3379C298.321 69.8822 297.661 69.6543 296.74 69.6543C295.4 69.6543 294.402 70.2604 293.746 71.4727V82H290.424V67.207H293.554ZM303.791 68L302.096 66.9473C302.916 65.7533 303.34 64.4909 303.367 63.1602V61H306.279V62.8867C306.279 63.8255 306.038 64.7734 305.555 65.7305C305.081 66.6784 304.493 67.4349 303.791 68ZM312.018 63.6113V67.207H314.629V69.668H312.018V77.9258C312.018 78.4909 312.128 78.901 312.346 79.1562C312.574 79.4023 312.975 79.5254 313.549 79.5254C313.932 79.5254 314.32 79.4798 314.711 79.3887V81.959C313.955 82.1686 313.226 82.2734 312.524 82.2734C309.972 82.2734 308.696 80.8652 308.696 78.0488V69.668H306.262V67.207H308.696V63.6113H312.018ZM32.9379 104.467C32.9379 103.018 33.225 101.714 33.7992 100.557C34.3734 99.39 35.1801 98.4967 36.2191 97.877C37.2582 97.248 38.4522 96.9336 39.8012 96.9336C41.7973 96.9336 43.4151 97.5762 44.6547 98.8613C45.9034 100.146 46.5779 101.851 46.6781 103.975L46.6918 104.754C46.6918 106.212 46.4092 107.516 45.8441 108.664C45.2881 109.812 44.4861 110.701 43.4379 111.33C42.3988 111.959 41.1957 112.273 39.8285 112.273C37.7413 112.273 36.0687 111.581 34.8109 110.195C33.5622 108.801 32.9379 106.946 32.9379 104.631V104.467ZM36.2601 104.754C36.2601 106.276 36.5746 107.47 37.2035 108.336C37.8324 109.193 38.7074 109.621 39.8285 109.621C40.9496 109.621 41.82 109.184 42.4398 108.309C43.0687 107.434 43.3832 106.153 43.3832 104.467C43.3832 102.972 43.0596 101.787 42.4125 100.912C41.7745 100.037 40.904 99.5996 39.8012 99.5996C38.7165 99.5996 37.8552 100.033 37.2172 100.898C36.5792 101.755 36.2601 103.04 36.2601 104.754ZM55.9305 100.242C55.493 100.169 55.0418 100.133 54.577 100.133C53.0548 100.133 52.0294 100.716 51.5008 101.883V112H48.1785V97.207H51.3504L51.4324 98.8613C52.2345 97.5762 53.3465 96.9336 54.7684 96.9336C55.2423 96.9336 55.6343 96.9974 55.9441 97.125L55.9305 100.242ZM55.8176 104.494C55.8176 102.215 56.3462 100.388 57.4035 99.0117C58.4608 97.6263 59.8781 96.9336 61.6555 96.9336C63.2232 96.9336 64.4901 97.4805 65.4563 98.5742V91H68.7785V112H65.7707L65.6067 110.469C64.6132 111.672 63.287 112.273 61.6281 112.273C59.8964 112.273 58.4927 111.576 57.4172 110.182C56.3508 108.787 55.8176 106.891 55.8176 104.494ZM59.1399 104.781C59.1399 106.285 59.427 107.461 60.0012 108.309C60.5845 109.147 61.4094 109.566 62.4758 109.566C63.8339 109.566 64.8274 108.96 65.4563 107.748V101.432C64.8456 100.247 63.8612 99.6543 62.5031 99.6543C61.4276 99.6543 60.5982 100.083 60.0149 100.939C59.4315 101.787 59.1399 103.068 59.1399 104.781ZM77.443 112.273C75.3375 112.273 73.6286 111.613 72.3161 110.291C71.0127 108.96 70.361 107.192 70.361 104.986V104.576C70.361 103.1 70.6435 101.783 71.2086 100.625C71.7829 99.4583 72.5849 98.5514 73.6149 97.9043C74.6448 97.2572 75.7933 96.9336 77.0602 96.9336C79.0745 96.9336 80.6286 97.5762 81.7223 98.8613C82.8252 100.146 83.3766 101.965 83.3766 104.316V105.656H73.7106C73.8108 106.878 74.2164 107.844 74.9274 108.555C75.6474 109.266 76.5498 109.621 77.6344 109.621C79.1566 109.621 80.3961 109.006 81.3532 107.775L83.1442 109.484C82.5517 110.368 81.7588 111.057 80.7653 111.549C79.7809 112.032 78.6735 112.273 77.443 112.273ZM77.0465 99.5996C76.1351 99.5996 75.3968 99.9186 74.8317 100.557C74.2757 101.195 73.9202 102.083 73.7653 103.223H80.0954V102.977C80.0224 101.865 79.7262 101.026 79.2067 100.461C78.6871 99.8867 77.9671 99.5996 77.0465 99.5996ZM92.3965 100.242C91.959 100.169 91.5079 100.133 91.043 100.133C89.5209 100.133 88.4955 100.716 87.9669 101.883V112H84.6446V97.207H87.8165L87.8985 98.8613C88.7006 97.5762 89.8126 96.9336 91.2344 96.9336C91.7084 96.9336 92.1003 96.9974 92.4102 97.125L92.3965 100.242ZM104.011 107.242L107.018 97.207H110.559L104.681 114.242C103.778 116.73 102.247 117.975 100.087 117.975C99.6037 117.975 99.0705 117.893 98.4872 117.729V115.158L99.1161 115.199C99.9546 115.199 100.584 115.044 101.003 114.734C101.431 114.434 101.768 113.923 102.015 113.203L102.493 111.932L97.2977 97.207H100.88L104.011 107.242ZM117.488 112.273C115.382 112.273 113.673 111.613 112.361 110.291C111.057 108.96 110.406 107.192 110.406 104.986V104.576C110.406 103.1 110.688 101.783 111.253 100.625C111.827 99.4583 112.63 98.5514 113.659 97.9043C114.689 97.2572 115.838 96.9336 117.105 96.9336C119.119 96.9336 120.673 97.5762 121.767 98.8613C122.87 100.146 123.421 101.965 123.421 104.316V105.656H113.755C113.855 106.878 114.261 107.844 114.972 108.555C115.692 109.266 116.594 109.621 117.679 109.621C119.201 109.621 120.441 109.006 121.398 107.775L123.189 109.484C122.596 110.368 121.803 111.057 120.81 111.549C119.825 112.032 118.718 112.273 117.488 112.273ZM117.091 99.5996C116.18 99.5996 115.441 99.9186 114.876 100.557C114.32 101.195 113.965 102.083 113.81 103.223H120.14V102.977C120.067 101.865 119.771 101.026 119.251 100.461C118.732 99.8867 118.012 99.5996 117.091 99.5996ZM128.859 93.6113V97.207H131.47V99.668H128.859V107.926C128.859 108.491 128.968 108.901 129.187 109.156C129.415 109.402 129.816 109.525 130.39 109.525C130.773 109.525 131.161 109.48 131.552 109.389V111.959C130.796 112.169 130.067 112.273 129.365 112.273C126.813 112.273 125.537 110.865 125.537 108.049V99.668H123.103V97.207H125.537V93.6113H128.859ZM134.776 108.5C135.395 108.5 135.874 108.678 136.211 109.033C136.548 109.38 136.717 109.817 136.717 110.346C136.717 110.865 136.548 111.298 136.211 111.645C135.874 111.982 135.395 112.15 134.776 112.15C134.183 112.15 133.714 111.982 133.367 111.645C133.021 111.307 132.848 110.874 132.848 110.346C132.848 109.817 133.016 109.38 133.354 109.033C133.691 108.678 134.165 108.5 134.776 108.5ZM148.645 104.604V112H145.186V92.0938H152.802C155.026 92.0938 156.789 92.6725 158.093 93.8301C159.405 94.9876 160.061 96.5189 160.061 98.4238C160.061 100.374 159.419 101.892 158.134 102.977C156.858 104.061 155.067 104.604 152.761 104.604H148.645ZM148.645 101.828H152.802C154.032 101.828 154.971 101.541 155.618 100.967C156.265 100.383 156.589 99.5449 156.589 98.4512C156.589 97.3757 156.261 96.5189 155.604 95.8809C154.948 95.2337 154.046 94.901 152.897 94.8828H148.645V101.828ZM164.994 112H161.671V91H164.994V112ZM173.822 112.273C171.717 112.273 170.008 111.613 168.695 110.291C167.392 108.96 166.74 107.192 166.74 104.986V104.576C166.74 103.1 167.023 101.783 167.588 100.625C168.162 99.4583 168.964 98.5514 169.994 97.9043C171.024 97.2572 172.172 96.9336 173.439 96.9336C175.454 96.9336 177.008 97.5762 178.101 98.8613C179.204 100.146 179.756 101.965 179.756 104.316V105.656H170.09C170.19 106.878 170.596 107.844 171.306 108.555C172.026 109.266 172.929 109.621 174.013 109.621C175.536 109.621 176.775 109.006 177.732 107.775L179.523 109.484C178.931 110.368 178.138 111.057 177.144 111.549C176.16 112.032 175.053 112.273 173.822 112.273ZM173.426 99.5996C172.514 99.5996 171.776 99.9186 171.211 100.557C170.655 101.195 170.299 102.083 170.144 103.223H176.474V102.977C176.401 101.865 176.105 101.026 175.586 100.461C175.066 99.8867 174.346 99.5996 173.426 99.5996ZM189.869 112C189.724 111.717 189.596 111.257 189.487 110.619C188.429 111.722 187.135 112.273 185.604 112.273C184.118 112.273 182.906 111.85 181.967 111.002C181.028 110.154 180.559 109.106 180.559 107.857C180.559 106.281 181.142 105.073 182.309 104.234C183.485 103.387 185.162 102.963 187.34 102.963H189.377V101.992C189.377 101.227 189.163 100.616 188.735 100.16C188.306 99.6953 187.655 99.4629 186.78 99.4629C186.023 99.4629 185.403 99.6543 184.92 100.037C184.437 100.411 184.196 100.889 184.196 101.473H180.873C180.873 100.661 181.142 99.9049 181.68 99.2031C182.218 98.4922 182.947 97.9362 183.867 97.5352C184.797 97.1341 185.832 96.9336 186.971 96.9336C188.703 96.9336 190.084 97.3711 191.113 98.2461C192.143 99.112 192.672 100.333 192.699 101.91V108.582C192.699 109.913 192.886 110.975 193.26 111.768V112H189.869ZM186.219 109.607C186.875 109.607 187.49 109.448 188.065 109.129C188.648 108.81 189.086 108.382 189.377 107.844V105.055H187.586C186.356 105.055 185.431 105.269 184.811 105.697C184.191 106.126 183.881 106.732 183.881 107.516C183.881 108.154 184.091 108.664 184.51 109.047C184.938 109.421 185.508 109.607 186.219 109.607ZM203.155 107.98C203.155 107.388 202.909 106.937 202.417 106.627C201.934 106.317 201.127 106.044 199.997 105.807C198.866 105.57 197.923 105.269 197.167 104.904C195.508 104.102 194.678 102.94 194.678 101.418C194.678 100.142 195.216 99.0755 196.292 98.2188C197.367 97.362 198.734 96.9336 200.393 96.9336C202.161 96.9336 203.588 97.3711 204.672 98.2461C205.766 99.1211 206.313 100.256 206.313 101.65H202.991C202.991 101.012 202.754 100.484 202.28 100.064C201.806 99.6361 201.177 99.4219 200.393 99.4219C199.664 99.4219 199.067 99.5905 198.602 99.9277C198.146 100.265 197.919 100.716 197.919 101.281C197.919 101.792 198.133 102.188 198.561 102.471C198.99 102.753 199.855 103.04 201.159 103.332C202.462 103.615 203.483 103.956 204.221 104.357C204.969 104.749 205.52 105.223 205.876 105.779C206.24 106.335 206.422 107.01 206.422 107.803C206.422 109.133 205.871 110.214 204.768 111.043C203.665 111.863 202.221 112.273 200.434 112.273C199.222 112.273 198.142 112.055 197.194 111.617C196.246 111.18 195.508 110.578 194.979 109.812C194.45 109.047 194.186 108.222 194.186 107.338H197.413C197.458 108.122 197.755 108.728 198.301 109.156C198.848 109.576 199.573 109.785 200.475 109.785C201.35 109.785 202.016 109.621 202.471 109.293C202.927 108.956 203.155 108.518 203.155 107.98ZM214.526 112.273C212.421 112.273 210.712 111.613 209.399 110.291C208.096 108.96 207.444 107.192 207.444 104.986V104.576C207.444 103.1 207.727 101.783 208.292 100.625C208.866 99.4583 209.668 98.5514 210.698 97.9043C211.728 97.2572 212.877 96.9336 214.144 96.9336C216.158 96.9336 217.712 97.5762 218.806 98.8613C219.909 100.146 220.46 101.965 220.46 104.316V105.656H210.794C210.894 106.878 211.3 107.844 212.011 108.555C212.731 109.266 213.633 109.621 214.718 109.621C216.24 109.621 217.48 109.006 218.437 107.775L220.228 109.484C219.635 110.368 218.842 111.057 217.849 111.549C216.864 112.032 215.757 112.273 214.526 112.273ZM214.13 99.5996C213.218 99.5996 212.48 99.9186 211.915 100.557C211.359 101.195 211.004 102.083 210.849 103.223H217.179V102.977C217.106 101.865 216.81 101.026 216.29 100.461C215.771 99.8867 215.051 99.5996 214.13 99.5996ZM236.23 112C236.085 111.717 235.957 111.257 235.848 110.619C234.79 111.722 233.496 112.273 231.965 112.273C230.479 112.273 229.267 111.85 228.328 111.002C227.389 110.154 226.92 109.106 226.92 107.857C226.92 106.281 227.503 105.073 228.67 104.234C229.846 103.387 231.523 102.963 233.701 102.963H235.738V101.992C235.738 101.227 235.524 100.616 235.096 100.16C234.667 99.6953 234.016 99.4629 233.141 99.4629C232.384 99.4629 231.764 99.6543 231.281 100.037C230.798 100.411 230.557 100.889 230.557 101.473H227.234C227.234 100.661 227.503 99.9049 228.041 99.2031C228.579 98.4922 229.308 97.9362 230.228 97.5352C231.158 97.1341 232.193 96.9336 233.332 96.9336C235.064 96.9336 236.445 97.3711 237.474 98.2461C238.504 99.112 239.033 100.333 239.06 101.91V108.582C239.06 109.913 239.247 110.975 239.621 111.768V112H236.23ZM232.58 109.607C233.236 109.607 233.851 109.448 234.426 109.129C235.009 108.81 235.446 108.382 235.738 107.844V105.055H233.947C232.717 105.055 231.792 105.269 231.172 105.697C230.552 106.126 230.242 106.732 230.242 107.516C230.242 108.154 230.452 108.664 230.871 109.047C231.299 109.421 231.869 109.607 232.58 109.607ZM240.602 104.494C240.602 102.215 241.13 100.388 242.188 99.0117C243.245 97.6263 244.662 96.9336 246.44 96.9336C248.007 96.9336 249.274 97.4805 250.241 98.5742V91H253.563V112H250.555L250.391 110.469C249.397 111.672 248.071 112.273 246.412 112.273C244.681 112.273 243.277 111.576 242.201 110.182C241.135 108.787 240.602 106.891 240.602 104.494ZM243.924 104.781C243.924 106.285 244.211 107.461 244.785 108.309C245.369 109.147 246.194 109.566 247.26 109.566C248.618 109.566 249.612 108.96 250.241 107.748V101.432C249.63 100.247 248.645 99.6543 247.287 99.6543C246.212 99.6543 245.382 100.083 244.799 100.939C244.216 101.787 243.924 103.068 243.924 104.781ZM255.091 104.494C255.091 102.215 255.619 100.388 256.676 99.0117C257.734 97.6263 259.151 96.9336 260.928 96.9336C262.496 96.9336 263.763 97.4805 264.729 98.5742V91H268.051V112H265.044L264.88 110.469C263.886 111.672 262.56 112.273 260.901 112.273C259.169 112.273 257.766 111.576 256.69 110.182C255.624 108.787 255.091 106.891 255.091 104.494ZM258.413 104.781C258.413 106.285 258.7 107.461 259.274 108.309C259.857 109.147 260.682 109.566 261.749 109.566C263.107 109.566 264.1 108.96 264.729 107.748V101.432C264.119 100.247 263.134 99.6543 261.776 99.6543C260.701 99.6543 259.871 100.083 259.288 100.939C258.704 101.787 258.413 103.068 258.413 104.781ZM284.697 112C284.551 111.717 284.423 111.257 284.314 110.619C283.257 111.722 281.962 112.273 280.431 112.273C278.946 112.273 277.733 111.85 276.794 111.002C275.856 110.154 275.386 109.106 275.386 107.857C275.386 106.281 275.97 105.073 277.136 104.234C278.312 103.387 279.989 102.963 282.168 102.963H284.205V101.992C284.205 101.227 283.99 100.616 283.562 100.16C283.134 99.6953 282.482 99.4629 281.607 99.4629C280.85 99.4629 280.231 99.6543 279.748 100.037C279.265 100.411 279.023 100.889 279.023 101.473H275.701C275.701 100.661 275.97 99.9049 276.507 99.2031C277.045 98.4922 277.774 97.9362 278.695 97.5352C279.625 97.1341 280.659 96.9336 281.798 96.9336C283.53 96.9336 284.911 97.3711 285.941 98.2461C286.971 99.112 287.5 100.333 287.527 101.91V108.582C287.527 109.913 287.714 110.975 288.087 111.768V112H284.697ZM281.046 109.607C281.703 109.607 282.318 109.448 282.892 109.129C283.475 108.81 283.913 108.382 284.205 107.844V105.055H282.414C281.183 105.055 280.258 105.269 279.638 105.697C279.018 106.126 278.709 106.732 278.709 107.516C278.709 108.154 278.918 108.664 279.337 109.047C279.766 109.421 280.335 109.607 281.046 109.607ZM296.516 112V99.668H294.26V97.207H296.516V95.8535C296.516 94.2129 296.972 92.946 297.883 92.0527C298.795 91.1595 300.071 90.7129 301.711 90.7129C302.295 90.7129 302.914 90.7949 303.571 90.959L303.489 93.5566C303.124 93.4837 302.7 93.4473 302.217 93.4473C300.631 93.4473 299.838 94.263 299.838 95.8945V97.207H302.846V99.668H299.838V112H296.516ZM310.143 112.273C308.038 112.273 306.329 111.613 305.016 110.291C303.713 108.96 303.061 107.192 303.061 104.986V104.576C303.061 103.1 303.344 101.783 303.909 100.625C304.483 99.4583 305.285 98.5514 306.315 97.9043C307.345 97.2572 308.494 96.9336 309.761 96.9336C311.775 96.9336 313.329 97.5762 314.423 98.8613C315.526 100.146 316.077 101.965 316.077 104.316V105.656H306.411C306.511 106.878 306.917 107.844 307.628 108.555C308.348 109.266 309.25 109.621 310.335 109.621C311.857 109.621 313.096 109.006 314.054 107.775L315.845 109.484C315.252 110.368 314.459 111.057 313.466 111.549C312.481 112.032 311.374 112.273 310.143 112.273ZM309.747 99.5996C308.835 99.5996 308.097 99.9186 307.532 100.557C306.976 101.195 306.621 102.083 306.466 103.223H312.796V102.977C312.723 101.865 312.427 101.026 311.907 100.461C311.388 99.8867 310.667 99.5996 309.747 99.5996ZM330.347 107.42L332.698 97.207H335.939L331.905 112H329.171L325.999 101.842L322.882 112H320.148L316.101 97.207H319.341L321.734 107.311L324.769 97.207H327.271L330.347 107.42ZM53.7395 127.207L53.8352 128.752C54.8742 127.54 56.2961 126.934 58.1008 126.934C60.0787 126.934 61.4322 127.69 62.1613 129.203C63.2369 127.69 64.7499 126.934 66.7004 126.934C68.3319 126.934 69.5442 127.385 70.3371 128.287C71.1392 129.189 71.5494 130.52 71.5676 132.279V142H68.2453V132.375C68.2453 131.436 68.0403 130.748 67.6301 130.311C67.2199 129.873 66.5409 129.654 65.593 129.654C64.8365 129.654 64.2167 129.859 63.7336 130.27C63.2597 130.671 62.927 131.199 62.7356 131.855L62.7492 142H59.427V132.266C59.3814 130.525 58.4927 129.654 56.761 129.654C55.4302 129.654 54.4869 130.197 53.9309 131.281V142H50.6086V127.207H53.7395ZM73.0407 134.467C73.0407 133.018 73.3278 131.714 73.902 130.557C74.4762 129.39 75.2828 128.497 76.3219 127.877C77.361 127.248 78.555 126.934 79.9039 126.934C81.9 126.934 83.5179 127.576 84.7575 128.861C86.0062 130.146 86.6806 131.851 86.7809 133.975L86.7946 134.754C86.7946 136.212 86.512 137.516 85.9469 138.664C85.3909 139.812 84.5888 140.701 83.5407 141.33C82.5016 141.959 81.2985 142.273 79.9313 142.273C77.844 142.273 76.1715 141.581 74.9137 140.195C73.665 138.801 73.0407 136.946 73.0407 134.631V134.467ZM76.3629 134.754C76.3629 136.276 76.6774 137.47 77.3063 138.336C77.9352 139.193 78.8102 139.621 79.9313 139.621C81.0524 139.621 81.9228 139.184 82.5426 138.309C83.1715 137.434 83.486 136.153 83.486 134.467C83.486 132.972 83.1624 131.787 82.5153 130.912C81.8772 130.037 81.0068 129.6 79.9039 129.6C78.8193 129.6 77.958 130.033 77.32 130.898C76.6819 131.755 76.3629 133.04 76.3629 134.754ZM96.0333 130.242C95.5958 130.169 95.1446 130.133 94.6797 130.133C93.1576 130.133 92.1322 130.716 91.6036 131.883V142H88.2813V127.207H91.4532L91.5352 128.861C92.3373 127.576 93.4493 126.934 94.8711 126.934C95.3451 126.934 95.737 126.997 96.0469 127.125L96.0333 130.242ZM103.057 142.273C100.952 142.273 99.2426 141.613 97.9301 140.291C96.6268 138.96 95.9751 137.192 95.9751 134.986V134.576C95.9751 133.1 96.2576 131.783 96.8227 130.625C97.3969 129.458 98.199 128.551 99.229 127.904C100.259 127.257 101.407 126.934 102.674 126.934C104.689 126.934 106.243 127.576 107.336 128.861C108.439 130.146 108.991 131.965 108.991 134.316V135.656H99.3247C99.4249 136.878 99.8305 137.844 100.541 138.555C101.262 139.266 102.164 139.621 103.249 139.621C104.771 139.621 106.01 139.006 106.967 137.775L108.758 139.484C108.166 140.368 107.373 141.057 106.379 141.549C105.395 142.032 104.288 142.273 103.057 142.273ZM102.661 129.6C101.749 129.6 101.011 129.919 100.446 130.557C99.8898 131.195 99.5343 132.083 99.3794 133.223H105.709V132.977C105.637 131.865 105.34 131.026 104.821 130.461C104.301 129.887 103.581 129.6 102.661 129.6ZM120.085 123.611V127.207H122.697V129.668H120.085V137.926C120.085 138.491 120.195 138.901 120.413 139.156C120.641 139.402 121.042 139.525 121.617 139.525C121.999 139.525 122.387 139.48 122.779 139.389V141.959C122.022 142.169 121.293 142.273 120.591 142.273C118.039 142.273 116.763 140.865 116.763 138.049V129.668H114.329V127.207H116.763V123.611H120.085ZM132.769 142C132.623 141.717 132.496 141.257 132.386 140.619C131.329 141.722 130.035 142.273 128.504 142.273C127.018 142.273 125.806 141.85 124.867 141.002C123.928 140.154 123.459 139.106 123.459 137.857C123.459 136.281 124.042 135.073 125.209 134.234C126.384 133.387 128.062 132.963 130.24 132.963H132.277V131.992C132.277 131.227 132.063 130.616 131.634 130.16C131.206 129.695 130.554 129.463 129.679 129.463C128.923 129.463 128.303 129.654 127.82 130.037C127.337 130.411 127.095 130.889 127.095 131.473H123.773C123.773 130.661 124.042 129.905 124.58 129.203C125.118 128.492 125.847 127.936 126.767 127.535C127.697 127.134 128.731 126.934 129.871 126.934C131.603 126.934 132.983 127.371 134.013 128.246C135.043 129.112 135.572 130.333 135.599 131.91V138.582C135.599 139.913 135.786 140.975 136.16 141.768V142H132.769ZM129.119 139.607C129.775 139.607 130.39 139.448 130.965 139.129C131.548 138.81 131.985 138.382 132.277 137.844V135.055H130.486C129.256 135.055 128.33 135.269 127.711 135.697C127.091 136.126 126.781 136.732 126.781 137.516C126.781 138.154 126.991 138.664 127.41 139.047C127.838 139.421 128.408 139.607 129.119 139.607ZM143.84 139.621C144.669 139.621 145.358 139.38 145.904 138.896C146.451 138.413 146.743 137.816 146.779 137.105H149.91C149.874 138.026 149.587 138.887 149.049 139.689C148.511 140.482 147.782 141.111 146.861 141.576C145.941 142.041 144.947 142.273 143.881 142.273C141.812 142.273 140.171 141.604 138.959 140.264C137.747 138.924 137.141 137.074 137.141 134.713V134.371C137.141 132.12 137.742 130.32 138.945 128.971C140.149 127.613 141.789 126.934 143.867 126.934C145.626 126.934 147.057 127.449 148.16 128.479C149.272 129.499 149.856 130.844 149.91 132.512H146.779C146.743 131.664 146.451 130.967 145.904 130.42C145.367 129.873 144.679 129.6 143.84 129.6C142.764 129.6 141.935 129.992 141.352 130.775C140.768 131.55 140.472 132.73 140.463 134.316V134.85C140.463 136.454 140.75 137.652 141.324 138.445C141.908 139.229 142.746 139.621 143.84 139.621ZM150.481 134.467C150.481 133.018 150.768 131.714 151.342 130.557C151.917 129.39 152.723 128.497 153.762 127.877C154.801 127.248 155.995 126.934 157.344 126.934C159.34 126.934 160.958 127.576 162.198 128.861C163.446 130.146 164.121 131.851 164.221 133.975L164.235 134.754C164.235 136.212 163.952 137.516 163.387 138.664C162.831 139.812 162.029 140.701 160.981 141.33C159.942 141.959 158.739 142.273 157.372 142.273C155.284 142.273 153.612 141.581 152.354 140.195C151.105 138.801 150.481 136.946 150.481 134.631V134.467ZM153.803 134.754C153.803 136.276 154.118 137.47 154.747 138.336C155.376 139.193 156.251 139.621 157.372 139.621C158.493 139.621 159.363 139.184 159.983 138.309C160.612 137.434 160.926 136.153 160.926 134.467C160.926 132.972 160.603 131.787 159.956 130.912C159.318 130.037 158.447 129.6 157.344 129.6C156.26 129.6 155.398 130.033 154.76 130.898C154.122 131.755 153.803 133.04 153.803 134.754ZM174.02 137.98C174.02 137.388 173.774 136.937 173.282 136.627C172.799 136.317 171.992 136.044 170.862 135.807C169.732 135.57 168.789 135.269 168.032 134.904C166.373 134.102 165.544 132.94 165.544 131.418C165.544 130.142 166.082 129.076 167.157 128.219C168.233 127.362 169.6 126.934 171.259 126.934C173.027 126.934 174.453 127.371 175.538 128.246C176.632 129.121 177.179 130.256 177.179 131.65H173.856C173.856 131.012 173.619 130.484 173.145 130.064C172.672 129.636 172.043 129.422 171.259 129.422C170.53 129.422 169.933 129.59 169.468 129.928C169.012 130.265 168.784 130.716 168.784 131.281C168.784 131.792 168.998 132.188 169.427 132.471C169.855 132.753 170.721 133.04 172.024 133.332C173.328 133.615 174.349 133.956 175.087 134.357C175.834 134.749 176.386 135.223 176.741 135.779C177.106 136.335 177.288 137.01 177.288 137.803C177.288 139.133 176.737 140.214 175.634 141.043C174.531 141.863 173.086 142.273 171.3 142.273C170.088 142.273 169.007 142.055 168.06 141.617C167.112 141.18 166.373 140.578 165.845 139.812C165.316 139.047 165.052 138.222 165.052 137.338H168.278C168.324 138.122 168.62 138.728 169.167 139.156C169.714 139.576 170.438 139.785 171.341 139.785C172.216 139.785 172.881 139.621 173.337 139.293C173.793 138.956 174.02 138.518 174.02 137.98ZM188.697 123.611V127.207H191.308V129.668H188.697V137.926C188.697 138.491 188.806 138.901 189.025 139.156C189.253 139.402 189.654 139.525 190.228 139.525C190.611 139.525 190.998 139.48 191.39 139.389V141.959C190.634 142.169 189.905 142.273 189.203 142.273C186.651 142.273 185.375 140.865 185.375 138.049V129.668H182.941V127.207H185.375V123.611H188.697ZM191.51 134.467C191.51 133.018 191.797 131.714 192.371 130.557C192.946 129.39 193.752 128.497 194.791 127.877C195.83 127.248 197.024 126.934 198.373 126.934C200.369 126.934 201.987 127.576 203.227 128.861C204.475 130.146 205.15 131.851 205.25 133.975L205.264 134.754C205.264 136.212 204.981 137.516 204.416 138.664C203.86 139.812 203.058 140.701 202.01 141.33C200.971 141.959 199.768 142.273 198.401 142.273C196.313 142.273 194.641 141.581 193.383 140.195C192.134 138.801 191.51 136.946 191.51 134.631V134.467ZM194.832 134.754C194.832 136.276 195.147 137.47 195.776 138.336C196.405 139.193 197.28 139.621 198.401 139.621C199.522 139.621 200.392 139.184 201.012 138.309C201.641 137.434 201.955 136.153 201.955 134.467C201.955 132.972 201.632 131.787 200.985 130.912C200.347 130.037 199.476 129.6 198.373 129.6C197.289 129.6 196.427 130.033 195.789 130.898C195.151 131.755 194.832 133.04 194.832 134.754ZM217.589 137.242L220.597 127.207H224.138L218.259 144.242C217.356 146.73 215.825 147.975 213.665 147.975C213.182 147.975 212.649 147.893 212.065 147.729V145.158L212.694 145.199C213.533 145.199 214.162 145.044 214.581 144.734C215.009 144.434 215.347 143.923 215.593 143.203L216.071 141.932L210.876 127.207H214.458L217.589 137.242ZM223.902 134.467C223.902 133.018 224.189 131.714 224.763 130.557C225.337 129.39 226.144 128.497 227.183 127.877C228.222 127.248 229.416 126.934 230.765 126.934C232.761 126.934 234.379 127.576 235.619 128.861C236.867 130.146 237.542 131.851 237.642 133.975L237.656 134.754C237.656 136.212 237.373 137.516 236.808 138.664C236.252 139.812 235.45 140.701 234.402 141.33C233.363 141.959 232.16 142.273 230.792 142.273C228.705 142.273 227.033 141.581 225.775 140.195C224.526 138.801 223.902 136.946 223.902 134.631V134.467ZM227.224 134.754C227.224 136.276 227.539 137.47 228.167 138.336C228.796 139.193 229.671 139.621 230.792 139.621C231.914 139.621 232.784 139.184 233.404 138.309C234.033 137.434 234.347 136.153 234.347 134.467C234.347 132.972 234.024 131.787 233.376 130.912C232.738 130.037 231.868 129.6 230.765 129.6C229.68 129.6 228.819 130.033 228.181 130.898C227.543 131.755 227.224 133.04 227.224 134.754ZM248.111 140.551C247.136 141.699 245.751 142.273 243.955 142.273C242.351 142.273 241.134 141.804 240.305 140.865C239.484 139.926 239.074 138.568 239.074 136.791V127.207H242.396V136.75C242.396 138.628 243.176 139.566 244.734 139.566C246.348 139.566 247.437 138.988 248.002 137.83V127.207H251.324V142H248.193L248.111 140.551ZM261.137 130.242C260.7 130.169 260.248 130.133 259.783 130.133C258.261 130.133 257.236 130.716 256.707 131.883V142H253.385V127.207H256.557L256.639 128.861C257.441 127.576 258.553 126.934 259.975 126.934C260.449 126.934 260.841 126.997 261.151 127.125L261.137 130.242ZM273.653 139.621C274.483 139.621 275.171 139.38 275.718 138.896C276.265 138.413 276.556 137.816 276.593 137.105H279.724C279.687 138.026 279.4 138.887 278.862 139.689C278.325 140.482 277.595 141.111 276.675 141.576C275.754 142.041 274.761 142.273 273.694 142.273C271.625 142.273 269.985 141.604 268.773 140.264C267.56 138.924 266.954 137.074 266.954 134.713V134.371C266.954 132.12 267.556 130.32 268.759 128.971C269.962 127.613 271.603 126.934 273.681 126.934C275.44 126.934 276.871 127.449 277.974 128.479C279.086 129.499 279.669 130.844 279.724 132.512H276.593C276.556 131.664 276.265 130.967 275.718 130.42C275.18 129.873 274.492 129.6 273.653 129.6C272.578 129.6 271.748 129.992 271.165 130.775C270.582 131.55 270.286 132.73 270.276 134.316V134.85C270.276 136.454 270.564 137.652 271.138 138.445C271.721 139.229 272.56 139.621 273.653 139.621ZM289.755 142C289.61 141.717 289.482 141.257 289.373 140.619C288.315 141.722 287.021 142.273 285.49 142.273C284.004 142.273 282.792 141.85 281.853 141.002C280.914 140.154 280.445 139.106 280.445 137.857C280.445 136.281 281.028 135.073 282.195 134.234C283.371 133.387 285.048 132.963 287.226 132.963H289.263V131.992C289.263 131.227 289.049 130.616 288.621 130.16C288.192 129.695 287.541 129.463 286.666 129.463C285.909 129.463 285.289 129.654 284.806 130.037C284.323 130.411 284.082 130.889 284.082 131.473H280.759C280.759 130.661 281.028 129.905 281.566 129.203C282.104 128.492 282.833 127.936 283.753 127.535C284.683 127.134 285.718 126.934 286.857 126.934C288.589 126.934 289.97 127.371 291 128.246C292.029 129.112 292.558 130.333 292.585 131.91V138.582C292.585 139.913 292.772 140.975 293.146 141.768V142H289.755ZM286.105 139.607C286.761 139.607 287.376 139.448 287.951 139.129C288.534 138.81 288.972 138.382 289.263 137.844V135.055H287.472C286.242 135.055 285.317 135.269 284.697 135.697C284.077 136.126 283.767 136.732 283.767 137.516C283.767 138.154 283.977 138.664 284.396 139.047C284.824 139.421 285.394 139.607 286.105 139.607ZM302.494 130.242C302.057 130.169 301.605 130.133 301.141 130.133C299.618 130.133 298.593 130.716 298.064 131.883V142H294.742V127.207H297.914L297.996 128.861C298.798 127.576 299.91 126.934 301.332 126.934C301.806 126.934 302.198 126.997 302.508 127.125L302.494 130.242ZM308.123 123.611V127.207H310.735V129.668H308.123V137.926C308.123 138.491 308.233 138.901 308.452 139.156C308.679 139.402 309.08 139.525 309.655 139.525C310.037 139.525 310.425 139.48 310.817 139.389V141.959C310.06 142.169 309.331 142.273 308.629 142.273C306.077 142.273 304.801 140.865 304.801 138.049V129.668H302.368V127.207H304.801V123.611H308.123ZM314.04 138.5C314.66 138.5 315.138 138.678 315.475 139.033C315.813 139.38 315.981 139.817 315.981 140.346C315.981 140.865 315.813 141.298 315.475 141.645C315.138 141.982 314.66 142.15 314.04 142.15C313.447 142.15 312.978 141.982 312.632 141.645C312.285 141.307 312.112 140.874 312.112 140.346C312.112 139.817 312.281 139.38 312.618 139.033C312.955 138.678 313.429 138.5 314.04 138.5Z" fill="black"/>
<rect x="61" y="196" width="250" height="50" rx="5" fill="#A2D3AB"/>
<path d="M164.361 222.457C164.361 224.398 164.001 226.117 163.281 227.611C162.561 229.106 161.536 230.259 160.205 231.07C158.883 231.872 157.375 232.273 155.68 232.273C153.984 232.273 152.48 231.886 151.168 231.111C149.855 230.327 148.83 229.211 148.092 227.762C147.363 226.312 146.98 224.649 146.943 222.771V221.65C146.943 219.7 147.299 217.982 148.01 216.496C148.73 215.001 149.755 213.848 151.086 213.037C152.426 212.226 153.948 211.82 155.652 211.82C157.339 211.82 158.842 212.221 160.164 213.023C161.486 213.826 162.511 214.969 163.24 216.455C163.979 217.932 164.352 219.627 164.361 221.541V222.457ZM159.48 221.623C159.48 219.645 159.148 218.146 158.482 217.125C157.826 216.095 156.883 215.58 155.652 215.58C153.246 215.58 151.975 217.385 151.838 220.994L151.824 222.457C151.824 224.408 152.148 225.907 152.795 226.955C153.442 228.003 154.404 228.527 155.68 228.527C156.892 228.527 157.826 228.012 158.482 226.982C159.139 225.952 159.471 224.471 159.48 222.539V221.623ZM175.656 221.377L174.139 221.268C172.689 221.268 171.76 221.723 171.35 222.635V232H166.742V217.207H171.063L171.213 219.107C171.988 217.658 173.068 216.934 174.453 216.934C174.945 216.934 175.374 216.988 175.738 217.098L175.656 221.377ZM176.547 224.494C176.547 222.152 177.053 220.306 178.064 218.957C179.076 217.608 180.489 216.934 182.303 216.934C183.624 216.934 184.736 217.453 185.639 218.492V211H190.26V232H186.117L185.885 230.414C184.937 231.654 183.734 232.273 182.275 232.273C180.516 232.273 179.122 231.599 178.092 230.25C177.062 228.901 176.547 226.982 176.547 224.494ZM181.154 224.781C181.154 227.406 181.92 228.719 183.451 228.719C184.472 228.719 185.201 228.29 185.639 227.434V221.801C185.219 220.926 184.499 220.488 183.479 220.488C182.057 220.488 181.286 221.637 181.168 223.934L181.154 224.781ZM200.119 232.273C197.85 232.273 196.013 231.599 194.609 230.25C193.206 228.892 192.504 227.128 192.504 224.959V224.576C192.504 223.063 192.782 221.728 193.338 220.57C193.903 219.413 194.723 218.52 195.799 217.891C196.874 217.253 198.15 216.934 199.627 216.934C201.705 216.934 203.346 217.581 204.549 218.875C205.752 220.16 206.354 221.956 206.354 224.262V226.053H197.193C197.357 226.882 197.717 227.534 198.273 228.008C198.829 228.482 199.55 228.719 200.434 228.719C201.892 228.719 203.031 228.208 203.852 227.188L205.957 229.676C205.383 230.469 204.567 231.102 203.51 231.576C202.462 232.041 201.331 232.273 200.119 232.273ZM199.6 220.488C198.251 220.488 197.449 221.382 197.193 223.168H201.842V222.812C201.86 222.074 201.673 221.505 201.281 221.104C200.889 220.693 200.329 220.488 199.6 220.488ZM217.252 221.377L215.734 221.268C214.285 221.268 213.356 221.723 212.945 222.635V232H208.338V217.207H212.658L212.809 219.107C213.583 217.658 214.663 216.934 216.049 216.934C216.541 216.934 216.969 216.988 217.334 217.098L217.252 221.377Z" fill="#6F6F6F"/>
</svg>
