<svg width="368" height="285" viewBox="0 0 368 285" fill="none" xmlns="http://www.w3.org/2000/svg">
<rect width="368" height="285" rx="30" fill="white"/>
<g clip-path="url(#clip0)">
<path fill-rule="evenodd" clip-rule="evenodd" d="M245.933 83.2001C254.118 86.5694 257.084 94.1403 250.61 100.212C247.464 103.164 244.097 102.899 236.788 99.867C236.148 99.6013 233.734 98.5807 233.889 98.6461C232.678 98.1366 231.747 97.7555 230.818 97.3948C218.555 92.6316 209.241 93.364 198.998 102.972C189.265 112.102 187.386 123.062 191.228 134.566C192.553 138.535 194.476 142.289 196.737 145.721C197.528 146.922 198.306 147.999 199.039 148.937C199.485 149.508 199.822 149.912 200.019 150.135C200.698 150.902 201.87 150.973 202.637 150.294C203.403 149.616 203.475 148.444 202.796 147.677C202.648 147.51 202.359 147.164 201.961 146.654C201.287 145.792 200.568 144.796 199.834 143.682C197.738 140.5 195.959 137.027 194.745 133.392C191.331 123.169 192.949 113.73 201.535 105.677C210.599 97.1744 218.424 96.559 229.475 100.852C230.366 101.198 231.269 101.567 232.451 102.064C232.285 101.994 234.713 103.021 235.367 103.292C243.912 106.837 248.577 107.204 253.147 102.917C261.908 94.6998 257.736 84.0482 247.345 79.7709C236.559 75.3311 221.037 75.2344 210.085 83.1302C209.255 83.729 209.067 84.8879 209.666 85.7186C210.265 86.5492 211.424 86.7371 212.254 86.1382C221.998 79.1129 236.219 79.2014 245.933 83.2001Z" fill="#47CB5E"/>
<path fill-rule="evenodd" clip-rule="evenodd" d="M202.699 150.237L252.753 103.287C253.512 102.574 253.539 101.37 252.859 100.645C252.159 99.898 250.978 99.8674 250.216 100.582L200.162 147.533C199.402 148.245 199.375 149.449 200.055 150.174C200.756 150.921 201.937 150.952 202.699 150.237Z" fill="#47CB5E"/>
<path fill-rule="evenodd" clip-rule="evenodd" d="M193.424 111.446C192.987 110.346 192.666 109.134 192.533 107.857C192.303 105.657 192.652 103.497 193.729 101.428C194.765 99.4396 195.493 98.818 196.913 98.3336C197.146 98.2541 198.058 97.9695 198.148 97.9404C199.473 97.5122 200.49 97.0553 201.628 96.2919C203.306 95.166 204.175 94.0835 205.579 91.7941C207.035 89.4195 207.792 88.5709 209.518 87.7337C211.749 86.6522 213.367 86.9612 215.536 88.4773C215.942 88.7608 216.13 88.9041 217.031 89.6019C219.523 91.5309 220.793 92.1801 222.739 91.8101C223.857 91.5973 224.798 91.169 227.029 90.0019C229.254 88.8382 230.306 88.4109 230.594 88.4596C231.674 88.6422 232.092 89.0492 232.665 90.2999C232.737 90.4574 232.795 90.5896 232.934 90.9087C233.947 93.2384 234.745 94.361 236.61 95.232C237.783 95.7798 238.943 95.7865 240.858 95.5111C241.078 95.4795 241.344 95.439 241.813 95.3677C243.867 95.0602 244.763 95.1235 245.307 95.6088C246.202 96.4069 246.665 98.6877 246.287 102.998L246.125 104.845L249.819 105.17L249.981 103.323C250.452 97.9559 249.775 94.6257 247.776 92.842C246.112 91.357 244.375 91.2343 241.264 91.7002C240.781 91.7737 240.533 91.8114 240.33 91.8405C239.112 92.0157 238.479 92.0121 238.179 91.8721C237.372 91.4952 237.012 90.9889 236.334 89.4301C236.193 89.1035 236.122 88.9437 236.036 88.7559C235.001 86.4944 233.693 85.2229 231.212 84.8032C229.708 84.5487 228.569 85.011 225.392 86.6731C223.469 87.6796 222.65 88.0522 222.046 88.1671C221.574 88.2568 220.919 87.9222 219.302 86.6698C218.344 85.9283 218.137 85.7707 217.66 85.4378C214.488 83.2203 211.502 82.6502 207.9 84.397C205.38 85.6192 204.213 86.9272 202.453 89.7982C201.274 91.72 200.677 92.4648 199.562 93.2125C198.747 93.7595 198.03 94.0813 197.007 94.4119C196.959 94.4276 196.004 94.7256 195.715 94.8239C193.397 95.6149 191.918 96.8775 190.441 99.7145C189.008 102.464 188.543 105.351 188.845 108.242C189.138 111.055 190.029 113.296 190.868 114.676L191.83 116.261L195 114.336L194.037 112.751C193.911 112.543 193.681 112.093 193.424 111.446Z" fill="#47CB5E"/>
</g>
<line x1="31.8885" y1="248.993" x2="89.8885" y2="184.993" stroke="#47CB5E" stroke-width="3"/>
<line x1="136.889" y1="200.993" x2="194.889" y2="136.993" stroke="#47CB5E" stroke-width="3"/>
<line x1="88.4494" y1="185.569" x2="138.061" y2="201.148" stroke="#47CB5E" stroke-width="3"/>
<line x1="31" y1="21" x2="31" y2="250" stroke="black" stroke-width="2"/>
<line x1="31" y1="249" x2="331" y2="249" stroke="black" stroke-width="2"/>
<defs>
<clipPath id="clip0">
<rect width="89" height="89" fill="white" transform="translate(170 75.2738) rotate(-13.1673)"/>
</clipPath>
</defs>
</svg>
