<svg width="124" height="43" viewBox="0 0 124 43" fill="none" xmlns="http://www.w3.org/2000/svg">
<g clip-path="url(#clip0)">
<rect width="124" height="43" fill="#FAFAFA"/>
<path d="M44.848 30.28C44.76 30.28 44.684 30.248 44.62 30.184C44.556 30.12 44.524 30.044 44.524 29.956V27.4C44.188 27.88 43.656 28.12 42.928 28.12C42.2 28.12 41.6 27.888 41.128 27.424C40.664 26.952 40.416 26.264 40.384 25.36L40.372 24.88L40.384 24.412C40.424 23.46 40.672 22.76 41.128 22.312C41.584 21.864 42.184 21.64 42.928 21.64C43.32 21.64 43.664 21.712 43.96 21.856C44.264 22 44.512 22.196 44.704 22.444V22.084C44.704 21.996 44.736 21.92 44.8 21.856C44.864 21.792 44.94 21.76 45.028 21.76H47.068C47.156 21.76 47.232 21.792 47.296 21.856C47.36 21.92 47.392 21.996 47.392 22.084V29.956C47.392 30.044 47.36 30.12 47.296 30.184C47.232 30.248 47.156 30.28 47.068 30.28H44.848ZM43.924 25.972C44.124 25.972 44.268 25.924 44.356 25.828C44.452 25.724 44.508 25.572 44.524 25.372C44.54 25.132 44.548 24.984 44.548 24.928C44.548 24.872 44.54 24.724 44.524 24.484C44.508 24.252 44.456 24.08 44.368 23.968C44.28 23.848 44.132 23.788 43.924 23.788C43.716 23.788 43.568 23.844 43.48 23.956C43.4 24.068 43.348 24.244 43.324 24.484C43.316 24.564 43.312 24.696 43.312 24.88C43.312 25.064 43.316 25.196 43.324 25.276C43.348 25.516 43.4 25.692 43.48 25.804C43.568 25.916 43.716 25.972 43.924 25.972ZM50.9416 28.12C50.5176 28.12 50.1296 28.024 49.7776 27.832C49.4256 27.632 49.1416 27.328 48.9256 26.92C48.7176 26.512 48.6136 26.004 48.6136 25.396V22.084C48.6136 21.996 48.6456 21.92 48.7096 21.856C48.7736 21.792 48.8496 21.76 48.9376 21.76H51.2296C51.3176 21.76 51.3936 21.792 51.4576 21.856C51.5216 21.92 51.5536 21.996 51.5536 22.084V25.312C51.5536 25.528 51.6056 25.692 51.7096 25.804C51.8136 25.916 51.9616 25.972 52.1536 25.972C52.3456 25.972 52.4936 25.916 52.5976 25.804C52.7016 25.692 52.7536 25.528 52.7536 25.312V22.084C52.7536 21.996 52.7856 21.92 52.8496 21.856C52.9136 21.792 52.9896 21.76 53.0776 21.76H55.3576C55.4456 21.76 55.5216 21.792 55.5856 21.856C55.6496 21.92 55.6816 21.996 55.6816 22.084V27.676C55.6816 27.764 55.6496 27.84 55.5856 27.904C55.5216 27.968 55.4456 28 55.3576 28H53.2576C53.1696 28 53.0936 27.968 53.0296 27.904C52.9656 27.84 52.9336 27.764 52.9336 27.676V27.28C52.7416 27.56 52.4736 27.772 52.1296 27.916C51.7856 28.052 51.3896 28.12 50.9416 28.12ZM58.9515 28.12C58.5035 28.12 58.0995 28.036 57.7395 27.868C57.3875 27.7 57.1115 27.472 56.9115 27.184C56.7195 26.896 56.6235 26.572 56.6235 26.212C56.6235 25.132 57.4995 24.44 59.2515 24.136L60.5235 23.932V23.92C60.5235 23.688 60.5035 23.532 60.4635 23.452C60.4235 23.364 60.3235 23.32 60.1635 23.32C60.0755 23.32 59.9995 23.336 59.9355 23.368C59.8715 23.4 59.8035 23.448 59.7315 23.512C59.6595 23.576 59.5955 23.624 59.5395 23.656C59.4915 23.688 59.4235 23.704 59.3355 23.704H57.2955C57.2235 23.704 57.1595 23.684 57.1035 23.644C57.0555 23.596 57.0315 23.536 57.0315 23.464C57.0315 23.232 57.1435 22.972 57.3675 22.684C57.5995 22.396 57.9515 22.152 58.4235 21.952C58.9035 21.744 59.4915 21.64 60.1875 21.64C61.2595 21.64 62.0635 21.864 62.5995 22.312C63.1355 22.76 63.4035 23.4 63.4035 24.232V27.676C63.4035 27.764 63.3715 27.84 63.3075 27.904C63.2435 27.968 63.1675 28 63.0795 28H60.9795C60.8915 28 60.8155 27.968 60.7515 27.904C60.6875 27.84 60.6555 27.764 60.6555 27.676V27.34C60.4795 27.58 60.2435 27.772 59.9475 27.916C59.6515 28.052 59.3195 28.12 58.9515 28.12ZM59.7795 26.344C60.0195 26.344 60.2075 26.268 60.3435 26.116C60.4875 25.964 60.5595 25.732 60.5595 25.42V25.408L59.8515 25.564C59.4995 25.644 59.3235 25.792 59.3235 26.008C59.3235 26.104 59.3635 26.184 59.4435 26.248C59.5235 26.312 59.6355 26.344 59.7795 26.344ZM64.9484 28C64.8604 28 64.7844 27.968 64.7204 27.904C64.6564 27.84 64.6244 27.764 64.6244 27.676V22.084C64.6244 21.996 64.6564 21.92 64.7204 21.856C64.7844 21.792 64.8604 21.76 64.9484 21.76H67.0484C67.1364 21.76 67.2124 21.792 67.2764 21.856C67.3404 21.92 67.3724 21.996 67.3724 22.084V22.504C67.6364 22.272 67.9284 22.092 68.2484 21.964C68.5684 21.828 68.9004 21.76 69.2444 21.76H69.8204C69.9084 21.76 69.9844 21.792 70.0484 21.856C70.1124 21.92 70.1444 21.996 70.1444 22.084V23.956C70.1444 24.044 70.1124 24.12 70.0484 24.184C69.9844 24.248 69.9084 24.28 69.8204 24.28H68.2724C67.7924 24.28 67.5524 24.52 67.5524 25V27.676C67.5524 27.764 67.5204 27.84 67.4564 27.904C67.3924 27.968 67.3164 28 67.2284 28H64.9484ZM72.9218 28.12C72.4738 28.12 72.0698 28.036 71.7098 27.868C71.3578 27.7 71.0818 27.472 70.8818 27.184C70.6898 26.896 70.5938 26.572 70.5938 26.212C70.5938 25.132 71.4698 24.44 73.2218 24.136L74.4938 23.932V23.92C74.4938 23.688 74.4738 23.532 74.4338 23.452C74.3938 23.364 74.2938 23.32 74.1338 23.32C74.0458 23.32 73.9698 23.336 73.9058 23.368C73.8418 23.4 73.7738 23.448 73.7018 23.512C73.6298 23.576 73.5658 23.624 73.5098 23.656C73.4618 23.688 73.3938 23.704 73.3058 23.704H71.2658C71.1938 23.704 71.1298 23.684 71.0738 23.644C71.0258 23.596 71.0018 23.536 71.0018 23.464C71.0018 23.232 71.1138 22.972 71.3378 22.684C71.5698 22.396 71.9218 22.152 72.3938 21.952C72.8738 21.744 73.4618 21.64 74.1578 21.64C75.2298 21.64 76.0338 21.864 76.5698 22.312C77.1058 22.76 77.3738 23.4 77.3738 24.232V27.676C77.3738 27.764 77.3418 27.84 77.2778 27.904C77.2138 27.968 77.1378 28 77.0498 28H74.9498C74.8618 28 74.7858 27.968 74.7218 27.904C74.6578 27.84 74.6258 27.764 74.6258 27.676V27.34C74.4498 27.58 74.2138 27.772 73.9178 27.916C73.6218 28.052 73.2898 28.12 72.9218 28.12ZM73.7498 26.344C73.9898 26.344 74.1778 26.268 74.3138 26.116C74.4578 25.964 74.5298 25.732 74.5298 25.42V25.408L73.8218 25.564C73.4698 25.644 73.2938 25.792 73.2938 26.008C73.2938 26.104 73.3338 26.184 73.4138 26.248C73.4938 26.312 73.6058 26.344 73.7498 26.344ZM78.9187 28C78.8307 28 78.7547 27.968 78.6907 27.904C78.6267 27.84 78.5947 27.764 78.5947 27.676V22.084C78.5947 21.996 78.6267 21.92 78.6907 21.856C78.7547 21.792 78.8307 21.76 78.9187 21.76H81.0187C81.1067 21.76 81.1827 21.792 81.2467 21.856C81.3107 21.92 81.3427 21.996 81.3427 22.084V22.48C81.5507 22.232 81.8307 22.032 82.1827 21.88C82.5427 21.72 82.9267 21.64 83.3347 21.64C83.7587 21.64 84.1467 21.74 84.4987 21.94C84.8507 22.132 85.1307 22.432 85.3387 22.84C85.5547 23.248 85.6627 23.756 85.6627 24.364V27.676C85.6627 27.764 85.6307 27.84 85.5667 27.904C85.5027 27.968 85.4267 28 85.3387 28H83.0467C82.9587 28 82.8827 27.968 82.8187 27.904C82.7547 27.84 82.7227 27.764 82.7227 27.676V24.448C82.7227 24.232 82.6707 24.068 82.5667 23.956C82.4627 23.844 82.3147 23.788 82.1227 23.788C81.9307 23.788 81.7827 23.844 81.6787 23.956C81.5747 24.068 81.5227 24.232 81.5227 24.448V27.676C81.5227 27.764 81.4907 27.84 81.4267 27.904C81.3627 27.968 81.2867 28 81.1987 28H78.9187ZM90.6978 28C89.7538 28 89.0178 27.804 88.4898 27.412C87.9618 27.012 87.6978 26.348 87.6978 25.42V23.86H86.7498C86.6618 23.86 86.5858 23.828 86.5218 23.764C86.4578 23.7 86.4258 23.624 86.4258 23.536V22.084C86.4258 21.996 86.4578 21.92 86.5218 21.856C86.5858 21.792 86.6618 21.76 86.7498 21.76H87.6978V19.804C87.6978 19.716 87.7298 19.64 87.7938 19.576C87.8578 19.512 87.9338 19.48 88.0218 19.48H90.1218C90.2098 19.48 90.2858 19.512 90.3498 19.576C90.4138 19.64 90.4458 19.716 90.4458 19.804V21.76H91.9578C92.0458 21.76 92.1218 21.792 92.1858 21.856C92.2498 21.92 92.2818 21.996 92.2818 22.084V23.536C92.2818 23.624 92.2498 23.7 92.1858 23.764C92.1218 23.828 92.0458 23.86 91.9578 23.86H90.4458V25.18C90.4458 25.58 90.6178 25.78 90.9618 25.78H92.0538C92.1418 25.78 92.2178 25.812 92.2818 25.876C92.3458 25.94 92.3778 26.016 92.3778 26.104V27.676C92.3778 27.764 92.3458 27.84 92.2818 27.904C92.2178 27.968 92.1418 28 92.0538 28H90.6978ZM93.8045 21.1C93.7165 21.1 93.6405 21.068 93.5765 21.004C93.5125 20.94 93.4805 20.864 93.4805 20.776V19.324C93.4805 19.236 93.5125 19.16 93.5765 19.096C93.6405 19.032 93.7165 19 93.8045 19H95.8325C95.9205 19 95.9965 19.032 96.0605 19.096C96.1245 19.16 96.1565 19.236 96.1565 19.324V20.776C96.1565 20.864 96.1245 20.94 96.0605 21.004C95.9965 21.068 95.9205 21.1 95.8325 21.1H93.8045ZM93.7445 28C93.6565 28 93.5805 27.968 93.5165 27.904C93.4525 27.84 93.4205 27.764 93.4205 27.676V22.084C93.4205 21.996 93.4525 21.92 93.5165 21.856C93.5805 21.792 93.6565 21.76 93.7445 21.76H95.8925C95.9805 21.76 96.0565 21.792 96.1205 21.856C96.1845 21.92 96.2165 21.996 96.2165 22.084V27.676C96.2165 27.764 96.1845 27.84 96.1205 27.904C96.0565 27.968 95.9805 28 95.8925 28H93.7445ZM98.6154 28C98.5274 28 98.4514 27.968 98.3874 27.904C98.3234 27.84 98.2914 27.764 98.2914 27.676V23.86H97.4634C97.3754 23.86 97.2994 23.828 97.2354 23.764C97.1714 23.7 97.1394 23.624 97.1394 23.536V22.084C97.1394 21.996 97.1714 21.92 97.2354 21.856C97.2994 21.792 97.3754 21.76 97.4634 21.76H98.2914V21.556C98.2914 20.644 98.5674 20.012 99.1194 19.66C99.6714 19.3 100.435 19.12 101.411 19.12H102.527C102.615 19.12 102.691 19.152 102.755 19.216C102.819 19.28 102.851 19.356 102.851 19.444V20.896C102.851 20.984 102.819 21.06 102.755 21.124C102.691 21.188 102.615 21.22 102.527 21.22H101.555C101.211 21.22 101.039 21.352 101.039 21.616V21.76H102.407C102.495 21.76 102.571 21.792 102.635 21.856C102.699 21.92 102.731 21.996 102.731 22.084V23.536C102.731 23.624 102.699 23.7 102.635 23.764C102.571 23.828 102.495 23.86 102.407 23.86H101.039V27.676C101.039 27.764 101.007 27.84 100.943 27.904C100.879 27.968 100.803 28 100.715 28H98.6154ZM104.842 30.28C104.77 30.28 104.706 30.256 104.65 30.208C104.602 30.16 104.578 30.1 104.578 30.028C104.578 30.02 104.578 30.004 104.578 29.98C104.57 29.956 104.574 29.932 104.59 29.908L105.55 27.604L103.234 22.132C103.226 22.108 103.222 22.08 103.222 22.048C103.238 21.968 103.274 21.9 103.33 21.844C103.386 21.788 103.45 21.76 103.522 21.76H105.55C105.734 21.76 105.862 21.856 105.934 22.048L106.918 24.784L107.938 22.048C108.018 21.856 108.154 21.76 108.346 21.76H110.35C110.422 21.76 110.486 21.788 110.542 21.844C110.598 21.892 110.626 21.948 110.626 22.012C110.626 22.06 110.622 22.1 110.614 22.132L107.23 29.992C107.15 30.184 107.01 30.28 106.81 30.28H104.842Z" fill="#47CB5E"/>
<g clip-path="url(#clip1)">
<path fill-rule="evenodd" clip-rule="evenodd" d="M36.1485 8.68198C39.8295 10.1972 41.163 13.6019 38.2519 16.3325C36.8369 17.6598 35.3226 17.5408 32.0358 16.1773C31.7478 16.0579 30.6622 15.5988 30.7322 15.6283C30.1875 15.3991 29.7685 15.2277 29.3509 15.0655C23.8359 12.9235 19.6475 13.2529 15.0409 17.5739C10.6638 21.6795 9.81883 26.6086 11.5466 31.7822C12.1427 33.5671 13.0074 35.2552 14.0242 36.7988C14.3799 37.3387 14.7297 37.8228 15.0594 38.2449C15.2601 38.5018 15.4118 38.6835 15.5003 38.7835C15.8055 39.1283 16.3325 39.1605 16.6774 38.8553C17.0222 38.5501 17.0544 38.0231 16.7492 37.6782C16.6825 37.603 16.5526 37.4474 16.3736 37.2183C16.0706 36.8304 15.7469 36.3824 15.4169 35.8814C14.4745 34.4508 13.6744 32.8888 13.1284 31.2539C11.5932 26.6567 12.3209 22.4117 16.1818 18.7902C20.2584 14.9664 23.7771 14.6897 28.7471 16.6201C29.1479 16.7757 29.5538 16.9418 30.0854 17.1655C30.0105 17.134 31.1026 17.5957 31.3968 17.7178C35.2396 19.3118 37.3375 19.4768 39.3929 17.5489C43.3325 13.8536 41.4563 9.06341 36.7833 7.13983C31.9328 5.14316 24.9522 5.09971 20.0272 8.65053C19.6537 8.91986 19.5692 9.44101 19.8385 9.81457C20.1078 10.1881 20.629 10.2726 21.0025 10.0033C25.3846 6.8439 31.78 6.88371 36.1485 8.68198Z" fill="#47CB5E"/>
<path fill-rule="evenodd" clip-rule="evenodd" d="M16.7051 38.8297L39.2155 17.7152C39.5569 17.395 39.5691 16.8532 39.2632 16.5272C38.9482 16.1913 38.4171 16.1776 38.0746 16.4988L15.5642 37.6134C15.2228 37.9336 15.2107 38.4753 15.5165 38.8014C15.8316 39.1372 16.3626 39.151 16.7051 38.8297Z" fill="#47CB5E"/>
<path fill-rule="evenodd" clip-rule="evenodd" d="M12.5341 21.3846C12.3374 20.89 12.1933 20.345 12.1334 19.7706C12.0301 18.7813 12.1868 17.8096 12.6714 16.8793C13.1372 15.9851 13.4646 15.7056 14.1031 15.4877C14.2078 15.452 14.6182 15.324 14.6585 15.3109C15.2543 15.1183 15.712 14.9129 16.2237 14.5696C16.9783 14.0633 17.3688 13.5764 18.0003 12.5468C18.6552 11.479 18.9956 11.0973 19.772 10.7208C20.7749 10.2344 21.5027 10.3734 22.4782 11.0552C22.6606 11.1827 22.7455 11.2472 23.1507 11.561C24.2711 12.4285 24.8425 12.7204 25.7173 12.5541C26.2204 12.4584 26.6436 12.2657 27.6469 11.7409C28.6472 11.2175 29.1204 11.0254 29.25 11.0473C29.7355 11.1294 29.9237 11.3124 30.1813 11.8749C30.2137 11.9457 30.2398 12.0052 30.3022 12.1487C30.7577 13.1964 31.1168 13.7012 31.9555 14.0929C32.483 14.3393 33.0046 14.3423 33.8659 14.2184C33.9649 14.2042 34.0846 14.186 34.2954 14.1539C35.2189 14.0156 35.6222 14.0441 35.8668 14.2624C36.269 14.6213 36.4775 15.647 36.3073 17.5856L36.2343 18.4162L37.8956 18.5621L37.9686 17.7314C38.1805 15.3179 37.8761 13.8202 36.9772 13.0181C36.2289 12.3503 35.4476 12.2951 34.0484 12.5046C33.8313 12.5377 33.7197 12.5546 33.6286 12.5677C33.0806 12.6465 32.796 12.6449 32.6613 12.5819C32.2983 12.4124 32.1363 12.1847 31.8315 11.4837C31.7678 11.3368 31.7362 11.265 31.6975 11.1805C31.2318 10.1635 30.6439 9.59166 29.5281 9.40294C28.8514 9.28847 28.3395 9.49637 26.9108 10.2438C26.0456 10.6965 25.6774 10.864 25.4057 10.9157C25.1936 10.9561 24.8991 10.8056 24.1718 10.2424C23.7411 9.90891 23.6478 9.83801 23.4336 9.68832C22.0068 8.69106 20.6642 8.43468 19.0443 9.22026C17.9109 9.76989 17.3862 10.3581 16.5944 11.6493C16.0643 12.5135 15.7957 12.8484 15.2945 13.1847C14.9278 13.4307 14.6055 13.5754 14.1456 13.7241C14.1237 13.7312 13.6941 13.8652 13.5645 13.9094C12.522 14.2651 11.857 14.8329 11.1924 16.1088C10.5484 17.3451 10.339 18.6436 10.4747 19.9437C10.6067 21.2085 11.0075 22.2165 11.3844 22.8371L11.8173 23.5498L13.2427 22.6841L12.8098 21.9714C12.7531 21.878 12.6498 21.6756 12.5341 21.3846Z" fill="#47CB5E"/>
</g>
</g>
<defs>
<clipPath id="clip0">
<rect width="124" height="43" fill="white"/>
</clipPath>
<clipPath id="clip1">
<rect width="40.0246" height="40.0246" fill="white" transform="translate(2 5.1174) rotate(-13.1673)"/>
</clipPath>
</defs>
</svg>
